SplineFontDB: 3.2
FontName: Untitled1
FullName: Untitled1
FamilyName: Untitled1
Weight: Book
Copyright: Copyright (c) 2024, Marko
Version: 001.000
ItalicAngle: 0
UnderlinePosition: -100
UnderlineWidth: 50
Ascent: 800
Descent: 200
InvalidEm: 0
sfntRevision: 0x00010000
LayerCount: 2
Layer: 0 1 "Back" 1
Layer: 1 1 "Fore" 0
XUID: [1021 309 1754209831 5219]
StyleMap: 0x0000
FSType: 0
OS2Version: 4
OS2_WeightWidthSlopeOnly: 0
OS2_UseTypoMetrics: 1
CreationTime: 1712179356
ModificationTime: 1712350036
PfmFamily: 17
TTFWeight: 400
TTFWidth: 5
LineGap: 90
VLineGap: 0
Panose: 2 0 5 9 0 0 0 0 0 0
OS2TypoAscent: 800
OS2TypoAOffset: 0
OS2TypoDescent: -200
OS2TypoDOffset: 0
OS2TypoLinegap: 90
OS2WinAscent: 771
OS2WinAOffset: 0
OS2WinDescent: 24
OS2WinDOffset: 0
HheadAscent: 771
HheadAOffset: 0
HheadDescent: -24
HheadDOffset: 0
OS2SubXSize: 650
OS2SubYSize: 700
OS2SubXOff: 0
OS2SubYOff: 140
OS2SupXSize: 650
OS2SupYSize: 700
OS2SupXOff: 0
OS2SupYOff: 480
OS2StrikeYSize: 49
OS2StrikeYPos: 258
OS2Vendor: 'PfEd'
OS2CodePages: 00000001.00000000
OS2UnicodeRanges: 00000001.00000000.00000000.00000000
DEI: 91125
ShortTable: cvt  2
  33
  633
EndShort
ShortTable: maxp 16
  1
  0
  15
  18
  3
  0
  0
  2
  0
  1
  1
  0
  64
  46
  0
  0
EndShort
LangName: 1033 "" "" "Regular" "FontForge 2.0 : Untitled1 : 3-4-2024" "" "Version 001.000"
GaspTable: 1 65535 2 0
Encoding: UnicodeBmp
UnicodeInterp: none
NameList: AGL For New Fonts
DisplaySize: -48
AntiAlias: 1
FitToEm: 0
WinInfo: 16 16 3
BeginChars: 65539 41

StartChar: .notdef
Encoding: 65536 -1 0
Width: 1000
GlyphClass: 1
Flags: W
LayerCount: 2
Fore
SplineSet
33 0 m 1,0,-1
 33 666 l 1,1,-1
 298 666 l 1,2,-1
 298 0 l 1,3,-1
 33 0 l 1,0,-1
66 33 m 1,4,-1
 265 33 l 1,5,-1
 265 633 l 1,6,-1
 66 633 l 1,7,-1
 66 33 l 1,4,-1
EndSplineSet
Validated: 1
EndChar

StartChar: comma
Encoding: 44 44 3
Width: 1000
GlyphClass: 1
Flags: W
LayerCount: 2
Fore
SplineSet
632 63 m 1024,0,-1
641 57 m 1,1,-1
 638 -21 l 1,2,-1
 581 -24 l 1,3,-1
 641 57 l 1,1,-1
449 153 m 1,4,-1
 593 150 l 1,5,-1
 644 60 l 1,6,-1
 413 33 l 1,7,-1
 449 153 l 1,4,-1
EndSplineSet
Validated: 1
EndChar

StartChar: period
Encoding: 46 46 4
Width: 1000
GlyphClass: 1
Flags: W
LayerCount: 2
Fore
SplineSet
452 156 m 1,0,-1
 623 156 l 1,1,-1
 623 36 l 1,2,-1
 452 36 l 1,3,-1
 452 156 l 1,0,-1
EndSplineSet
Validated: 1
EndChar

StartChar: zero
Encoding: 48 48 5
Width: 1000
GlyphClass: 1
Flags: W
LayerCount: 2
Fore
SplineSet
620 129 m 1,0,-1
 605 606 l 1,1,-1
 380 612 l 1,2,-1
 362 171 l 1,3,-1
 620 129 l 1,0,-1
299 705 m 1,4,-1
 692 705 l 1,5,-1
 692 51 l 1,6,-1
 299 51 l 1,7,-1
 299 705 l 1,4,-1
EndSplineSet
Validated: 1
EndChar

StartChar: one
Encoding: 49 49 6
Width: 1000
GlyphClass: 1
Flags: W
LayerCount: 2
Fore
SplineSet
548 771 m 1,0,-1
 629 771 l 1,1,-1
 629 21 l 1,2,-1
 548 21 l 1,3,-1
 548 771 l 1,0,-1
332 738 m 1,4,-1
 647 738 l 1,5,-1
 647 678 l 1,6,-1
 332 678 l 1,7,-1
 332 738 l 1,4,-1
EndSplineSet
Validated: 5
EndChar

StartChar: two
Encoding: 50 50 7
Width: 1000
GlyphClass: 1
Flags: W
LayerCount: 2
Fore
SplineSet
293 621 m 1,0,-1
 344 585 l 1,1,-1
 416 654 l 1,2,-1
 575 639 l 1,3,-1
 632 573 l 1,4,-1
 275 93 l 1,5,-1
 269 21 l 1,6,-1
 632 30 l 1,7,-1
 644 129 l 1,8,-1
 374 114 l 1,9,-1
 707 582 l 1,10,-1
 668 672 l 1,11,-1
 554 726 l 1,12,-1
 389 744 l 1,13,-1
 293 621 l 1,0,-1
EndSplineSet
Validated: 9
EndChar

StartChar: three
Encoding: 51 51 8
Width: 1000
GlyphClass: 1
Flags: W
LayerCount: 2
Fore
SplineSet
263 596 m 1,0,-1
 295 726 l 1,1,-1
 537 762 l 1,2,-1
 665 718 l 1,3,-1
 753 402 l 1,4,-1
 685 110 l 1,5,-1
 291 82 l 1,6,-1
 226 209 l 1,7,-1
 319 213 l 1,8,-1
 356 146 l 1,9,-1
 599 149 l 1,10,-1
 635 350 l 1,11,-1
 425 361 l 1,12,-1
 425 447 l 1,13,-1
 615 447 l 1,14,-1
 599 644 l 1,15,-1
 396 659 l 1,16,-1
 356 603 l 1,17,-1
 263 596 l 1,0,-1
EndSplineSet
Validated: 1
EndChar

StartChar: four
Encoding: 52 52 9
Width: 1000
GlyphClass: 1
Flags: W
LayerCount: 2
Fore
SplineSet
254 726 m 1,0,-1
 257 489 l 1,1,-1
 518 495 l 1,2,-1
 530 93 l 1,3,-1
 614 90 l 1,4,-1
 590 747 l 1,5,-1
 524 741 l 1,6,-1
 500 567 l 1,7,-1
 344 567 l 1,8,-1
 332 738 l 1,9,-1
 254 726 l 1,0,-1
EndSplineSet
Validated: 9
EndChar

StartChar: five
Encoding: 53 53 10
Width: 1000
GlyphClass: 1
Flags: W
LayerCount: 2
Fore
SplineSet
755 708 m 1,0,-1
 260 699 l 1,1,-1
 251 507 l 1,2,-1
 683 423 l 1,3,-1
 722 258 l 1,4,-1
 626 147 l 1,5,-1
 245 156 l 1,6,-1
 254 66 l 1,7,-1
 650 63 l 1,8,-1
 797 249 l 1,9,-1
 731 486 l 1,10,-1
 317 573 l 1,11,-1
 332 642 l 1,12,-1
 755 612 l 1,13,-1
 755 708 l 1,0,-1
EndSplineSet
Validated: 9
EndChar

StartChar: six
Encoding: 54 54 11
Width: 1000
GlyphClass: 1
Flags: W
LayerCount: 2
Fore
SplineSet
386 168 m 1,0,-1
 395 270 l 1,1,-1
 476 306 l 1,2,-1
 596 300 l 1,3,-1
 656 171 l 1,4,-1
 542 132 l 1,5,-1
 386 168 l 1,0,-1
734 651 m 1,6,-1
 464 723 l 1,7,-1
 260 621 l 1,8,-1
 323 141 l 1,9,-1
 557 69 l 1,10,-1
 713 159 l 1,11,-1
 638 339 l 1,12,-1
 476 366 l 1,13,-1
 350 321 l 1,14,-1
 317 600 l 1,15,-1
 464 678 l 1,16,-1
 707 612 l 1,17,-1
 734 651 l 1,6,-1
EndSplineSet
Validated: 9
EndChar

StartChar: seven
Encoding: 55 55 12
Width: 1000
GlyphClass: 1
Flags: W
LayerCount: 2
Fore
SplineSet
155 672 m 1,0,-1
 740 672 l 1,1,-1
 458 336 l 1,2,-1
 350 63 l 1,3,-1
 182 60 l 1,4,-1
 407 345 l 1,5,-1
 566 603 l 1,6,-1
 143 609 l 1,7,-1
 155 672 l 1,0,-1
EndSplineSet
Validated: 1
EndChar

StartChar: eight
Encoding: 56 56 13
Width: 1000
GlyphClass: 1
Flags: W
LayerCount: 2
Fore
SplineSet
269 312 m 1,0,-1
 401 180 l 1,1,-1
 587 162 l 1,2,-1
 677 249 l 1,3,-1
 560 426 l 1,4,-1
 344 453 l 1,5,-1
 269 312 l 1,0,-1
359 639 m 1,6,-1
 359 552 l 1,7,-1
 506 540 l 1,8,-1
 503 642 l 1,9,-1
 359 639 l 1,6,-1
245 711 m 1,10,-1
 614 705 l 1,11,-1
 611 480 l 1,12,-1
 770 240 l 1,13,-1
 593 87 l 1,14,-1
 383 93 l 1,15,-1
 164 294 l 1,16,-1
 266 513 l 1,17,-1
 245 711 l 1,10,-1
EndSplineSet
Validated: 1
EndChar

StartChar: nine
Encoding: 57 57 14
Width: 1000
GlyphClass: 1
Flags: W
LayerCount: 2
Fore
SplineSet
548 582 m 1,0,-1
 341 552 l 1,1,-1
 449 447 l 1,2,-1
 548 582 l 1,0,-1
350 627 m 1,3,-1
 599 624 l 1,4,-1
 698 264 l 1,5,-1
 557 45 l 1,6,-1
 350 45 l 1,7,-1
 254 186 l 1,8,-1
 332 186 l 1,9,-1
 371 117 l 1,10,-1
 524 126 l 1,11,-1
 599 270 l 1,12,-1
 533 435 l 1,13,-1
 317 396 l 1,14,-1
 257 510 l 1,15,-1
 350 627 l 1,3,-1
EndSplineSet
Validated: 1
EndChar

StartChar: A
Encoding: 65 65 15
Width: 1000
InSpiro: 1
LayerCount: 2
Fore
SplineSet
407 645 m 1,0,-1
 545 651 l 1,1,-1
 590 369 l 1,2,-1
 380 381 l 1,3,-1
 407 645 l 1,0,-1
  Spiro
    407 645 v
    545 651 v
    590 369 v
    380 381 v
    0 0 z
  EndSpiro
491 738 m 17,4,-1
 308 696 l 1,5,-1
 314 351 l 1,6,-1
 170 57 l 1,7,-1
 332 51 l 1,8,-1
 395 285 l 1,9,-1
 548 279 l 1,10,-1
 626 60 l 1,11,-1
 785 60 l 1,12,-1
 638 351 l 1,13,-1
 668 684 l 1,14,-1
 491 738 l 17,4,-1
  Spiro
    491 738 v
    308 696 v
    314 351 v
    170 57 v
    332 51 v
    395 285 v
    548 279 v
    626 60 v
    785 60 v
    638 351 v
    668 684 v
    0 0 z
  EndSpiro
EndSplineSet
Validated: 9
EndChar

StartChar: B
Encoding: 66 66 16
Width: 1000
InSpiro: 1
LayerCount: 2
Fore
SplineSet
338 468 m 1,0,-1
 446 471 l 1,1,-1
 488 672 l 1,2,-1
 263 684 l 1,3,-1
 338 468 l 1,0,-1
  Spiro
    338 468 v
    446 471 v
    488 672 v
    263 684 v
    0 0 z
  EndSpiro
269 99 m 1,4,-1
 494 96 l 1,5,-1
 431 309 l 1,6,-1
 341 324 l 1,7,-1
 269 99 l 1,4,-1
  Spiro
    269 99 v
    494 96 v
    431 309 v
    341 324 v
    0 0 z
  EndSpiro
203 729 m 25,8,-1
 521 726 l 1,9,-1
 599 633 l 1,10,-1
 494 396 l 1,11,-1
 632 138 l 1,12,-1
 587 54 l 1,13,-1
 194 60 l 1,14,-1
 203 729 l 25,8,-1
  Spiro
    203 729 v
    521 726 v
    599 633 v
    494 396 v
    632 138 v
    587 54 v
    194 60 v
    0 0 z
  EndSpiro
EndSplineSet
Validated: 1
EndChar

StartChar: C
Encoding: 67 67 17
Width: 1000
LayerCount: 2
Fore
SplineSet
683 636 m 29,0,-1
 581 717 l 25,1,-1
 218 720 l 25,2,-1
 110 627 l 25,3,-1
 83 126 l 25,4,-1
 188 39 l 25,5,-1
 605 39 l 25,6,-1
 752 114 l 25,7,-1
 665 165 l 25,8,-1
 557 126 l 25,9,-1
 236 120 l 25,10,-1
 197 594 l 25,11,-1
 251 642 l 25,12,-1
 569 654 l 25,13,-1
 605 597 l 25,14,-1
 683 636 l 29,0,-1
EndSplineSet
Validated: 9
EndChar

StartChar: D
Encoding: 68 68 18
Width: 1000
InSpiro: 1
LayerCount: 2
Fore
SplineSet
312 585 m 1,0,-1
 612 585 l 1,1,-1
 706 385 l 1,2,-1
 618 151 l 1,3,-1
 358 163 l 1,4,-1
 312 585 l 1,0,-1
  Spiro
    312 585 v
    612 585 v
    706 385 v
    618 151 v
    358 163 v
    0 0 z
  EndSpiro
248 63 m 1,5,-1
 719 72 l 1,6,-1
 866 456 l 1,7,-1
 635 711 l 1,8,-1
 194 702 l 1,9,-1
 248 63 l 1,5,-1
  Spiro
    248 63 v
    719 72 v
    866 456 v
    635 711 v
    194 702 v
    0 0 z
  EndSpiro
EndSplineSet
Validated: 9
EndChar

StartChar: E
Encoding: 69 69 19
Width: 1000
LayerCount: 2
Fore
SplineSet
824 732 m 1,0,-1
 143 720 l 1,1,-1
 143 42 l 1,2,-1
 773 39 l 1,3,-1
 749 189 l 1,4,-1
 650 228 l 25,5,-1
 305 219 l 25,6,-1
 317 405 l 1,7,-1
 707 381 l 1,8,-1
 737 483 l 1,9,-1
 302 474 l 1,10,-1
 314 627 l 25,11,-1
 752 609 l 25,12,-1
 809 627 l 1,13,-1
 824 732 l 1,0,-1
EndSplineSet
Validated: 9
EndChar

StartChar: F
Encoding: 70 70 20
Width: 1000
LayerCount: 2
Fore
SplineSet
710 702 m 29,0,-1
 200 702 l 25,1,-1
 137 84 l 25,2,-1
 251 75 l 25,3,-1
 275 351 l 25,4,-1
 611 360 l 25,5,-1
 641 408 l 25,6,-1
 596 432 l 25,7,-1
 272 435 l 25,8,-1
 281 609 l 25,9,-1
 704 633 l 25,10,-1
 710 702 l 29,0,-1
EndSplineSet
Validated: 9
EndChar

StartChar: G
Encoding: 71 71 21
Width: 1000
LayerCount: 2
Fore
SplineSet
731 720 m 1,0,-1
 281 684 l 1,1,-1
 71 312 l 25,2,-1
 218 69 l 25,3,-1
 650 57 l 25,4,-1
 806 237 l 25,5,-1
 683 378 l 1,6,-1
 395 381 l 25,7,-1
 323 342 l 25,8,-1
 401 297 l 25,9,-1
 635 288 l 1,10,-1
 620 153 l 1,11,-1
 284 186 l 1,12,-1
 224 357 l 1,13,-1
 335 588 l 1,14,-1
 773 573 l 1,15,-1
 731 720 l 1,0,-1
EndSplineSet
Validated: 9
EndChar

StartChar: H
Encoding: 72 72 22
Width: 1000
LayerCount: 2
Fore
SplineSet
98 729 m 25,0,-1
 185 372 l 1,1,-1
 155 66 l 25,2,-1
 323 66 l 25,3,-1
 266 345 l 25,4,-1
 632 351 l 1,5,-1
 620 69 l 1,6,-1
 803 66 l 1,7,-1
 719 387 l 1,8,-1
 785 735 l 1,9,-1
 614 735 l 1,10,-1
 623 453 l 1,11,-1
 260 450 l 25,12,-1
 236 729 l 1,13,-1
 98 729 l 25,0,-1
EndSplineSet
Validated: 9
EndChar

StartChar: I
Encoding: 73 73 23
Width: 1000
LayerCount: 2
Fore
SplineSet
113 594 m 29,0,-1
 116 699 l 25,1,-1
 422 669 l 25,2,-1
 749 681 l 25,3,-1
 716 576 l 25,4,-1
 464 567 l 25,5,-1
 461 126 l 25,6,-1
 731 111 l 25,7,-1
 773 33 l 25,8,-1
 95 36 l 25,9,-1
 140 123 l 25,10,-1
 353 120 l 25,11,-1
 371 552 l 25,12,-1
 113 594 l 29,0,-1
EndSplineSet
Validated: 1
EndChar

StartChar: J
Encoding: 74 74 24
Width: 1000
LayerCount: 2
Fore
SplineSet
161 345 m 1,0,-1
 278 74 l 1,1,-1
 718 66 l 1,2,-1
 822 256 l 1,3,-1
 752 690 l 1,4,-1
 923 705 l 25,5,-1
 911 777 l 25,6,-1
 488 768 l 25,7,-1
 482 678 l 25,8,-1
 656 681 l 1,9,-1
 682 252 l 25,10,-1
 338 258 l 1,11,-1
 269 405 l 25,12,-1
 161 345 l 1,0,-1
EndSplineSet
Validated: 9
EndChar

StartChar: K
Encoding: 75 75 25
Width: 1000
LayerCount: 2
Fore
SplineSet
110 750 m 1,0,-1
 116 48 l 1,1,-1
 359 36 l 1,2,-1
 281 273 l 1,3,-1
 641 42 l 1,4,-1
 851 45 l 1,5,-1
 326 381 l 1,6,-1
 878 687 l 1,7,-1
 599 714 l 1,8,-1
 296 495 l 1,9,-1
 362 771 l 1,10,-1
 110 750 l 1,0,-1
EndSplineSet
Validated: 9
EndChar

StartChar: L
Encoding: 76 76 26
Width: 1000
LayerCount: 2
Fore
SplineSet
167 732 m 1,0,-1
 224 42 l 1,1,-1
 914 33 l 1,2,-1
 782 177 l 1,3,-1
 317 204 l 1,4,-1
 416 720 l 1,5,-1
 167 732 l 1,0,-1
EndSplineSet
Validated: 9
EndChar

StartChar: M
Encoding: 77 77 27
Width: 1000
LayerCount: 2
Fore
SplineSet
86 96 m 1,0,-1
 170 417 l 25,1,-1
 74 717 l 25,2,-1
 239 738 l 25,3,-1
 467 426 l 25,4,-1
 662 717 l 25,5,-1
 842 720 l 25,6,-1
 731 435 l 25,7,-1
 848 117 l 25,8,-1
 635 123 l 1,9,-1
 680 525 l 1,10,-1
 470 303 l 1,11,-1
 278 504 l 1,12,-1
 266 114 l 25,13,-1
 86 96 l 1,0,-1
EndSplineSet
Validated: 1
EndChar

StartChar: N
Encoding: 78 78 28
Width: 1000
LayerCount: 2
Fore
SplineSet
158 96 m 25,0,-1
 170 669 l 25,1,-1
 245 666 l 25,2,-1
 584 210 l 25,3,-1
 665 201 l 25,4,-1
 716 663 l 25,5,-1
 842 672 l 25,6,-1
 761 87 l 25,7,-1
 674 90 l 25,8,-1
 563 102 l 25,9,-1
 266 549 l 25,10,-1
 248 99 l 25,11,-1
 158 96 l 25,0,-1
EndSplineSet
Validated: 1
EndChar

StartChar: O
Encoding: 79 79 29
Width: 1000
InSpiro: 1
LayerCount: 2
Fore
SplineSet
284 564 m 1,0,-1
 158 354 l 1,1,-1
 278 174 l 1,2,-1
 683 177 l 1,3,-1
 794 402 l 1,4,-1
 677 561 l 1,5,-1
 284 564 l 1,0,-1
  Spiro
    284 564 v
    158 354 v
    278 174 v
    683 177 v
    794 402 v
    677 561 v
    0 0 z
  EndSpiro
215 684 m 1,6,-1
 731 687 l 1,7,-1
 932 414 l 1,8,-1
 773 81 l 1,9,-1
 167 87 l 1,10,-1
 44 369 l 1,11,-1
 215 684 l 1,6,-1
  Spiro
    215 684 v
    731 687 v
    932 414 v
    773 81 v
    167 87 v
    44 369 v
    0 0 z
  EndSpiro
EndSplineSet
Validated: 1
EndChar

StartChar: P
Encoding: 80 80 30
Width: 1000
InSpiro: 1
LayerCount: 2
Fore
SplineSet
320 588 m 1,0,-1
 542 600 l 1,1,-1
 677 516 l 1,2,-1
 557 423 l 1,3,-1
 362 402 l 1,4,-1
 311 588 l 1,5,-1
 320 588 l 1,0,-1
  Spiro
    320 588 v
    542 600 v
    677 516 v
    557 423 v
    362 402 v
    311 588 v
    0 0 z
  EndSpiro
176 717 m 1,6,-1
 230 396 l 1,7,-1
 101 60 l 1,8,-1
 356 57 l 1,9,-1
 326 315 l 1,10,-1
 716 354 l 1,11,-1
 782 534 l 1,12,-1
 692 693 l 1,13,-1
 176 717 l 1,6,-1
  Spiro
    176 717 v
    230 396 v
    101 60 v
    356 57 v
    326 315 v
    716 354 v
    782 534 v
    692 693 v
    0 0 z
  EndSpiro
EndSplineSet
Validated: 9
EndChar

StartChar: Q
Encoding: 81 81 31
Width: 1000
InSpiro: 1
LayerCount: 2
Fore
SplineSet
572 249 m 1,0,-1
 287 228 l 1,1,-1
 164 408 l 1,2,-1
 278 573 l 1,3,-1
 581 570 l 1,4,-1
 641 438 l 1,5,-1
 572 249 l 1,0,-1
  Spiro
    572 249 v
    287 228 v
    164 408 v
    278 573 v
    581 570 v
    641 438 v
    0 0 z
  EndSpiro
629 663 m 25,6,-1
 218 684 l 1,7,-1
 47 432 l 1,8,-1
 194 132 l 1,9,-1
 536 141 l 1,10,-1
 734 72 l 1,11,-1
 821 120 l 1,12,-1
 680 195 l 1,13,-1
 785 444 l 1,14,-1
 629 663 l 25,6,-1
  Spiro
    629 663 v
    218 684 v
    47 432 v
    194 132 v
    536 141 v
    734 72 v
    821 120 v
    680 195 v
    785 444 v
    0 0 z
  EndSpiro
EndSplineSet
Validated: 9
EndChar

StartChar: R
Encoding: 82 82 32
Width: 1000
InSpiro: 1
LayerCount: 2
Fore
SplineSet
476 624 m 1,0,-1
 587 549 l 1,1,-1
 521 435 l 1,2,-1
 335 429 l 1,3,-1
 320 600 l 1,4,-1
 476 624 l 1,0,-1
  Spiro
    476 624 v
    587 549 v
    521 435 v
    335 429 v
    320 600 v
    0 0 z
  EndSpiro
182 663 m 1,5,-1
 260 402 l 1,6,-1
 179 105 l 1,7,-1
 359 93 l 1,8,-1
 350 375 l 1,9,-1
 617 96 l 1,10,-1
 806 117 l 1,11,-1
 569 372 l 1,12,-1
 665 549 l 1,13,-1
 518 729 l 1,14,-1
 182 663 l 1,5,-1
  Spiro
    182 663 v
    260 402 v
    179 105 v
    359 93 v
    350 375 v
    617 96 v
    806 117 v
    569 372 v
    665 549 v
    518 729 v
    0 0 z
  EndSpiro
EndSplineSet
Validated: 9
EndChar

StartChar: S
Encoding: 83 83 33
Width: 1000
LayerCount: 2
Fore
SplineSet
821 654 m 25,0,-1
 728 735 l 25,1,-1
 224 720 l 25,2,-1
 50 561 l 1,3,-1
 440 387 l 1,4,-1
 644 141 l 1,5,-1
 320 129 l 1,6,-1
 182 219 l 25,7,-1
 50 186 l 1,8,-1
 254 33 l 25,9,-1
 800 45 l 1,10,-1
 848 285 l 1,11,-1
 236 594 l 1,12,-1
 488 654 l 1,13,-1
 746 612 l 1,14,-1
 821 654 l 25,0,-1
EndSplineSet
Validated: 9
EndChar

StartChar: T
Encoding: 84 84 34
Width: 1000
LayerCount: 2
Fore
SplineSet
218 681 m 1,0,-1
 131 543 l 1,1,-1
 452 576 l 1,2,-1
 314 78 l 1,3,-1
 716 72 l 1,4,-1
 545 576 l 1,5,-1
 860 522 l 1,6,-1
 743 678 l 1,7,-1
 218 681 l 1,0,-1
EndSplineSet
Validated: 9
EndChar

StartChar: U
Encoding: 85 85 35
Width: 1000
LayerCount: 2
Fore
SplineSet
180 623 m 1,0,-1
 227 726 l 1,1,-1
 300 615 l 1,2,-1
 358 175 l 1,3,-1
 542 179 l 1,4,-1
 539 600 l 1,5,-1
 650 732 l 1,6,-1
 773 591 l 1,7,-1
 707 48 l 1,8,-1
 629 48 l 25,9,-1
 605 108 l 1,10,-1
 230 69 l 1,11,-1
 180 623 l 1,0,-1
EndSplineSet
Validated: 1
EndChar

StartChar: V
Encoding: 86 86 36
Width: 1000
LayerCount: 2
Fore
SplineSet
122 693 m 29,0,-1
 263 690 l 25,1,-1
 494 216 l 25,2,-1
 671 666 l 25,3,-1
 806 666 l 25,4,-1
 572 72 l 25,5,-1
 434 57 l 25,6,-1
 122 693 l 29,0,-1
EndSplineSet
Validated: 1
EndChar

StartChar: W
Encoding: 87 87 37
Width: 1000
LayerCount: 2
Fore
SplineSet
92 702 m 1,0,-1
 248 675 l 25,1,-1
 377 318 l 1,2,-1
 494 405 l 1,3,-1
 596 306 l 1,4,-1
 674 669 l 1,5,-1
 917 699 l 1,6,-1
 644 63 l 1,7,-1
 503 186 l 1,8,-1
 356 54 l 1,9,-1
 92 702 l 1,0,-1
EndSplineSet
Validated: 1
EndChar

StartChar: X
Encoding: 88 88 38
Width: 1000
LayerCount: 2
Fore
SplineSet
92 705 m 29,0,-1
 323 699 l 25,1,-1
 503 396 l 25,2,-1
 686 675 l 25,3,-1
 860 678 l 25,4,-1
 572 321 l 25,5,-1
 788 45 l 25,6,-1
 620 48 l 25,7,-1
 494 279 l 25,8,-1
 359 57 l 25,9,-1
 140 63 l 25,10,-1
 395 312 l 25,11,-1
 92 705 l 29,0,-1
EndSplineSet
Validated: 1
EndChar

StartChar: Y
Encoding: 89 89 39
Width: 1000
LayerCount: 2
Fore
SplineSet
59 738 m 29,0,-1
 269 723 l 25,1,-1
 464 486 l 25,2,-1
 632 696 l 25,3,-1
 863 720 l 25,4,-1
 530 405 l 25,5,-1
 590 87 l 25,6,-1
 359 87 l 25,7,-1
 425 390 l 25,8,-1
 59 738 l 29,0,-1
EndSplineSet
Validated: 1
EndChar

StartChar: Z
Encoding: 90 90 40
Width: 1000
LayerCount: 2
Fore
SplineSet
131 684 m 29,0,-1
 734 675 l 25,1,-1
 785 606 l 25,2,-1
 230 189 l 25,3,-1
 824 192 l 25,4,-1
 758 93 l 25,5,-1
 176 102 l 25,6,-1
 113 213 l 25,7,-1
 599 588 l 25,8,-1
 50 612 l 25,9,-1
 131 684 l 29,0,-1
EndSplineSet
Validated: 1
EndChar
